<svg xmlns="http://www.w3.org/2000/svg" version="1.1" xmlns:xlink="http://www.w3.org/1999/xlink" viewBox="0 0 6.742625437410087 6.544734303698458"><g transform="matrix(0.8552956205253794,0,0,0.8552956205253794,0.9613695730965834,4.409676970545758)"><rect width="7.849905415835799" height="7.849905415835799" x="-1.1072799784257121" y="-5.2546798705542725" fill="#ffffff"></rect><g transform="matrix(1,0,0,1,0,0)" clip-path="url(#SvgjsClipPath1997)"><g clip-path="url(#SvgjsClipPath1992b8079b03-9a26-4883-a775-740713942f7c)"><path d=" M 4.474744100446591 -1.137461842620577 C 3.699798132041424 -0.9093468177040993 3.445404104462491 -1.5341135037458766 2.818218232255039 -1.5288007811859585 C 2.191032360047588 -1.5234880586260404 1.887353343720847 -0.9093468177040993 1.2220297131368436 -1.061376065958894 C 0.4753075833312393 -1.232142148241973 0.14368933854207702 -2.41436522289228 0.7447859481785011 -3.0797362884991437 C 1.9840259203022115 -4.4514148444379495 3.96320481396307 -4.306690589703042 4.908584819491313 -3.021912995637179 C 5.558160022486991 -2.138957480187959 4.997430617301376 -1.2913410567667691 4.474744100446591 -1.137461842620577 Z" fill="#006fbf" transform="matrix(1,0,0,1,0,0)" fill-rule="nonzero"></path></g><g clip-path="url(#SvgjsClipPath1992b8079b03-9a26-4883-a775-740713942f7c)"><path d=" M 0.4408697567374824 -1.0841448769299684 C 0.5582240032842424 -0.7358769391182078 0.8409367395084388 -0.4418746674541776 1.1442837106751806 -0.3526019544384136 C 1.254863342862789 -0.3188027692814881 1.3697619973234625 -0.3012268382695651 1.4853889600356258 -0.30042342929636234 C 1.7684811764426849 -0.30042342929636234 1.9780965424451598 -0.4170187154774174 2.1807863951106006 -0.5297717648071036 C 2.3682970404619845 -0.6341288150912034 2.5621165438532763 -0.7419011870209666 2.8085889226151854 -0.7419011870209666 L 2.8162259612950673 -0.7419011870209666 C 3.0831902699309444 -0.7396717409467133 3.295319692144804 -0.6169573368171819 3.5001915558616377 -0.4982749096304442 C 3.710850492366959 -0.37636690088947056 3.928624682300735 -0.25028461013713255 4.205455475690744 -0.25028461013713255 C 4.279532455336353 -0.25057490920088377 4.35334353244312 -0.25916684316028826 4.425506546721627 -0.27589952247959015 C 4.773632179464826 -0.3554006207869369 5.058764101854708 -0.6478375366967075 5.1882142792298485 -1.0580556143589375 C 5.339057651913226 -1.535963469637267 5.240914589623317 -2.045273310046546 4.932065155805237 -2.387137519772692 C 4.356820633625555 -3.0238103965514265 3.5943975112544675 -3.374450085506011 2.7857726766212543 -3.374450085506011 C 2.3802851390199424 -3.374735556706657 1.980047116708696 -3.282762241212419 1.6153609226621937 -3.105493505910169 C 1.24504213657716 -2.9251588854193384 0.9242862753109098 -2.6572381901332403 0.6808909723909135 -2.3249502048079416 C 0.38982967214398767 -1.9290575040483464 0.3045889360710209 -1.488528446780864 0.4408697567374824 -1.0841448769299684 Z M 4.2054554756907505 -0.3631325295125394 C 3.9587933568374205 -0.3631325295125394 3.7635508027604336 -0.4762650590250743 3.556686668083628 -0.5959910567146549 C 3.3390073481955658 -0.721978477421279 3.1139281647418993 -0.8521401801392678 2.816700311523637 -0.8547965414192271 L 2.8085414875923287 -0.8547965414192271 C 2.5325645246137385 -0.8547965414192271 2.325700389936933 -0.7397191759695771 2.1254771584600274 -0.628389177325583 C 1.9353575868515305 -0.5226565113786448 1.7387868521345693 -0.4133187836946193 1.4851043498984908 -0.4133187836946193 C 1.3802606479609407 -0.4142497803529701 1.276104001673701 -0.4303549957936088 1.175875435897554 -0.4611332867338782 C 0.9062073309588646 -0.5405395149955106 0.6537107042941895 -0.8054641176485622 0.5475985581644063 -1.1204801044379797 C 0.4234136683263191 -1.4889553619865699 0.5029147666336621 -1.8929594516546162 0.7715393010695122 -2.258019387557546 C 1.2426122095619 -2.8966981872667796 1.9919216059257292 -3.27007335719101 2.7854880664841124 -3.2615547311077613 C 3.5619519556206893 -3.2615547311077577 4.294443578569377 -2.9241494135301145 4.847962860280823 -2.311431223293865 C 5.130106376230749 -1.999166467830117 5.2190944791093745 -1.5319314926944805 5.080394472277229 -1.092019090724135 C 4.96313509577619 -0.7204605566898734 4.70883593824297 -0.4563897844482403 4.4002236795391685 -0.38594877550647055 C 4.336364391143286 -0.3710216836168567 4.271034982940084 -0.3632890746575854 4.205455475690744 -0.3628953543982547 Z" fill="#0e1425" transform="matrix(1,0,0,1,0,0)" fill-rule="nonzero"></path></g></g><g><path d=" M 0.723 0.06599999999999984 L 0.8325 0.06599999999999984 L 0.47550000000000003 1.089 L 0.3555 1.089 L 0 0.06599999999999984 L 0.1125 0.06599999999999984 L 0.41550000000000004 0.9644999999999999 L 0.723 0.06599999999999984 M 0.982489013671875 1.089 L 0.982489013671875 0.3869999999999999 L 1.084489013671875 0.3869999999999999 L 1.084489013671875 1.089 L 0.982489013671875 1.089 M 0.975739013671875 0.22649999999999992 Q 0.952489013671875 0.2024999999999999 0.952489013671875 0.16799999999999993 Q 0.952489013671875 0.1349999999999999 0.975739013671875 0.1117499999999999 Q 0.998989013671875 0.08850000000000002 1.033489013671875 0.08850000000000002 Q 1.066489013671875 0.08850000000000002 1.090489013671875 0.1117499999999999 Q 1.114489013671875 0.1349999999999999 1.114489013671875 0.16949999999999998 Q 1.114489013671875 0.2024999999999999 1.090489013671875 0.22649999999999992 Q 1.066489013671875 0.25049999999999994 1.033489013671875 0.25049999999999994 Q 0.998989013671875 0.25049999999999994 0.975739013671875 0.22649999999999992 M 1.9814970703124999 0 L 1.9814970703124999 1.089 L 1.8794970703125 1.089 L 1.8794970703125 0.9854999999999999 Q 1.8359970703125001 1.0454999999999999 1.7729970703125 1.07925 Q 1.7099970703125 1.113 1.6349970703125 1.113 Q 1.5344970703125 1.113 1.4549970703125 1.065 Q 1.3754970703125 1.017 1.3304970703125 0.9315 Q 1.2854970703125 0.846 1.2854970703125 0.7364999999999999 Q 1.2854970703125 0.6285 1.3297470703125 0.54375 Q 1.3739970703125 0.45899999999999996 1.4527470703125 0.4109999999999999 Q 1.5314970703125 0.363 1.6319970703125 0.363 Q 1.7084970703125 0.363 1.7722470703125 0.39674999999999994 Q 1.8359970703125001 0.4305 1.8794970703125 0.492 L 1.8794970703125 0 L 1.9814970703124999 0 M 1.7602470703125 0.984 Q 1.8164970703124999 0.948 1.8479970703125002 0.8835 Q 1.8794970703125 0.819 1.8794970703125 0.738 Q 1.8794970703125 0.657 1.8479970703125002 0.5925 Q 1.8164970703124999 0.5279999999999999 1.7602470703125 0.492 Q 1.7039970703125 0.45599999999999996 1.6319970703125 0.45599999999999996 Q 1.5614970703125 0.45599999999999996 1.5059970703125 0.492 Q 1.4504970703125 0.5279999999999999 1.4189970703124999 0.59175 Q 1.3874970703125 0.6555 1.3874970703125 0.7364999999999999 Q 1.3874970703125 0.819 1.4189970703124999 0.8835 Q 1.4504970703125 0.948 1.5059970703125 0.984 Q 1.5614970703125 1.02 1.6319970703125 1.02 Q 1.7039970703125 1.02 1.7602470703125 0.984 M 2.640708251953125 0.3929999999999999 Q 2.702958251953125 0.42299999999999993 2.7397082519531253 0.48149999999999993 Q 2.776458251953125 0.5399999999999999 2.776458251953125 0.6194999999999999 L 2.776458251953125 1.089 L 2.674458251953125 1.089 L 2.674458251953125 0.6645 Q 2.674458251953125 0.45599999999999996 2.488458251953125 0.45599999999999996 Q 2.380458251953125 0.45599999999999996 2.326458251953125 0.5325 Q 2.272458251953125 0.609 2.272458251953125 0.738 L 2.272458251953125 1.089 L 2.170458251953125 1.089 L 2.170458251953125 0 L 2.272458251953125 0 L 2.272458251953125 0.504 Q 2.308458251953125 0.4365 2.367708251953125 0.39974999999999994 Q 2.426958251953125 0.363 2.504958251953125 0.363 Q 2.578458251953125 0.363 2.640708251953125 0.3929999999999999 M 3.026953125 1.089 L 3.026953125 0.3869999999999999 L 3.128953125 0.3869999999999999 L 3.128953125 1.089 L 3.026953125 1.089 M 3.020203125 0.22649999999999992 Q 2.996953125 0.2024999999999999 2.996953125 0.16799999999999993 Q 2.996953125 0.1349999999999999 3.020203125 0.1117499999999999 Q 3.043453125 0.08850000000000002 3.077953125 0.08850000000000002 Q 3.110953125 0.08850000000000002 3.134953125 0.1117499999999999 Q 3.158953125 0.1349999999999999 3.158953125 0.16949999999999998 Q 3.158953125 0.2024999999999999 3.134953125 0.22649999999999992 Q 3.110953125 0.25049999999999994 3.077953125 0.25049999999999994 Q 3.043453125 0.25049999999999994 3.020203125 0.22649999999999992 M 4.025961181640625 0.3869999999999999 L 4.025961181640625 1.062 Q 4.025961181640625 1.1564999999999999 3.986961181640625 1.23075 Q 3.947961181640625 1.305 3.877461181640625 1.347 Q 3.806961181640625 1.389 3.716961181640625 1.389 L 3.425961181640625 1.389 L 3.425961181640625 1.296 L 3.716961181640625 1.296 Q 3.808461181640625 1.296 3.866211181640625 1.23 Q 3.923961181640625 1.164 3.923961181640625 1.062 L 3.923961181640625 0.9854999999999999 Q 3.880461181640625 1.0454999999999999 3.817461181640625 1.07925 Q 3.7544611816406253 1.113 3.679461181640625 1.113 Q 3.578961181640625 1.113 3.499461181640625 1.065 Q 3.419961181640625 1.017 3.374961181640625 0.9315 Q 3.329961181640625 0.846 3.329961181640625 0.7364999999999999 Q 3.329961181640625 0.6285 3.374211181640625 0.54375 Q 3.418461181640625 0.45899999999999996 3.497211181640625 0.4109999999999999 Q 3.575961181640625 0.363 3.676461181640625 0.363 Q 3.752961181640625 0.363 3.816711181640625 0.39674999999999994 Q 3.880461181640625 0.4305 3.923961181640625 0.492 L 3.923961181640625 0.3869999999999999 L 4.025961181640625 0.3869999999999999 M 3.804711181640625 0.984 Q 3.860961181640625 0.948 3.892461181640625 0.8835 Q 3.923961181640625 0.819 3.923961181640625 0.738 Q 3.923961181640625 0.657 3.892461181640625 0.5925 Q 3.860961181640625 0.5279999999999999 3.804711181640625 0.492 Q 3.748461181640625 0.45599999999999996 3.676461181640625 0.45599999999999996 Q 3.605961181640625 0.45599999999999996 3.550461181640625 0.492 Q 3.494961181640625 0.5279999999999999 3.463461181640625 0.59175 Q 3.431961181640625 0.6555 3.431961181640625 0.7364999999999999 Q 3.431961181640625 0.819 3.463461181640625 0.8835 Q 3.494961181640625 0.948 3.550461181640625 0.984 Q 3.605961181640625 1.02 3.676461181640625 1.02 Q 3.748461181640625 1.02 3.804711181640625 0.984 M 4.69792236328125 0.3869999999999999 L 4.79392236328125 0.3869999999999999 L 4.41442236328125 1.389 L 4.31242236328125 1.389 L 4.42342236328125 1.1025 L 4.13542236328125 0.3869999999999999 L 4.24192236328125 0.3869999999999999 L 4.47442236328125 0.969 L 4.69792236328125 0.3869999999999999 M 5.54088427734375 0.3869999999999999 L 5.54088427734375 1.089 L 5.43888427734375 1.089 L 5.43888427734375 0.9854999999999999 Q 5.39538427734375 1.0454999999999999 5.33238427734375 1.07925 Q 5.26938427734375 1.113 5.19438427734375 1.113 Q 5.09388427734375 1.113 5.01438427734375 1.065 Q 4.93488427734375 1.017 4.88988427734375 0.9315 Q 4.84488427734375 0.846 4.84488427734375 0.7364999999999999 Q 4.84488427734375 0.6285 4.88913427734375 0.54375 Q 4.93338427734375 0.45899999999999996 5.01213427734375 0.4109999999999999 Q 5.09088427734375 0.363 5.19138427734375 0.363 Q 5.26788427734375 0.363 5.33163427734375 0.39674999999999994 Q 5.39538427734375 0.4305 5.43888427734375 0.492 L 5.43888427734375 0.3869999999999999 L 5.54088427734375 0.3869999999999999 M 5.31963427734375 0.984 Q 5.37588427734375 0.948 5.40738427734375 0.8835 Q 5.43888427734375 0.819 5.43888427734375 0.738 Q 5.43888427734375 0.657 5.40738427734375 0.5925 Q 5.37588427734375 0.5279999999999999 5.31963427734375 0.492 Q 5.26338427734375 0.45599999999999996 5.19138427734375 0.45599999999999996 Q 5.12088427734375 0.45599999999999996 5.06538427734375 0.492 Q 5.00988427734375 0.5279999999999999 4.97838427734375 0.59175 Q 4.94688427734375 0.6555 4.94688427734375 0.7364999999999999 Q 4.94688427734375 0.819 4.97838427734375 0.8835 Q 5.00988427734375 0.948 5.06538427734375 0.984 Q 5.12088427734375 1.02 5.19138427734375 1.02 Q 5.26338427734375 1.02 5.31963427734375 0.984" fill="#0e1425" fill-rule="nonzero"></path></g></g><defs><clipPath id="SvgjsClipPath1997"><path d=" M 0.37749656620131455 -4.048454325272746 h 4.880352326581746 v 3.798454325272746 h -4.880352326581746 Z"></path></clipPath><clipPath id="SvgjsClipPath1992b8079b03-9a26-4883-a775-740713942f7c"><path d=" M 0.37749656620131455 -4.048454325272746 L 5.257848892783061 -4.048454325272746 L 5.257848892783061 -0.25 L 0.37749656620131455 -0.25 Z"></path></clipPath></defs></svg>
